<svg xmlns="http://www.w3.org/2000/svg" xmlns:xlink="http://www.w3.org/1999/xlink" viewBox="9256 48 155 41.513">
  <defs>
    <style>
      .cls-1 {
        fill: url(#linear-gradient);
      }

      .cls-2 {
        fill: url(#linear-gradient-2);
      }

      .cls-3 {
        fill: #838388;
      }
    </style>
    <linearGradient id="linear-gradient" x1="0.5" x2="0.5" y2="1" gradientUnits="objectBoundingBox">
      <stop offset="0.01" stop-color="#ce6a23"/>
      <stop offset="1" stop-color="#d78b29"/>
    </linearGradient>
    <linearGradient id="linear-gradient-2" x1="0.5" y1="0" x2="0.5" y2="0.999" xlink:href="#linear-gradient"/>
  </defs>
  <g id="diphot" transform="translate(9256 48)">
    <path id="Path_37" data-name="Path 37" class="cls-1" d="M97.461,231.322l3.207-3.3,13.855,13.994-3.187,3.119Zm17.356,17.456L97.33,266.306l3.342,3.227,20.758-20.758-5.31-5.374-3.255,3.386Z" transform="translate(-97.33 -228.02)"/>
    <path id="Path_38" data-name="Path 38" class="cls-2" d="M178.82,272.016V255.524h10.608q4.541,0,6.983,2.123a7.563,7.563,0,0,1,2.442,6.031,8.951,8.951,0,0,1-.952,4.159,7.21,7.21,0,0,1-2.685,2.908,7.784,7.784,0,0,1-2.677.976,22.589,22.589,0,0,1-4.1.3H178.82Zm3.84-3.1h4.96q3.964,0,5.617-1.231a4.745,4.745,0,0,0,1.653-4.071,5.042,5.042,0,0,0-1.374-3.832,5.662,5.662,0,0,0-4.055-1.3h-6.8Zm20.834,3.1V255.524h3.84v16.492Zm9.867,0V255.524h14.106a4.347,4.347,0,0,1,2.848.757,3.04,3.04,0,0,1,.88,2.442V262.4a3.036,3.036,0,0,1-.88,2.426,4.337,4.337,0,0,1-2.848.757H217.134v6.429h-3.776Zm12.4-13.636h-8.632v4.382h8.628a2.318,2.318,0,0,0,1.366-.287,1.231,1.231,0,0,0,.366-1.024v-1.765a1.2,1.2,0,0,0-.366-1.008,2.319,2.319,0,0,0-1.366-.3Zm8.947,13.636V255.524h3.84v6.4h11.983v-6.4H254.4v16.492h-3.868v-7.1H238.549v7.1h-3.84Zm25.375-12.592a4.3,4.3,0,0,1,.845-3.075,4.706,4.706,0,0,1,3.247-.829h12.138a4.734,4.734,0,0,1,3.247.829,4.22,4.22,0,0,1,.845,3.075v8.692a4.291,4.291,0,0,1-.845,3.083,4.739,4.739,0,0,1-3.247.821H264.172a4.767,4.767,0,0,1-3.247-.821,4.218,4.218,0,0,1-.845-3.083v-8.692Zm3.836,9.485h12.652V258.472H263.925Zm29.837-10.437v13.544h-3.836V258.472h-7.569v-2.948h19v2.948Z" transform="translate(-146.358 -244.565)"/>
    <path id="Path_39" data-name="Path 39" class="cls-3" d="M179.729,311.44h-1.7v.613h1.593a.693.693,0,0,1,.51.143.8.8,0,0,1,.131.534v.4a.8.8,0,0,1-.131.534.693.693,0,0,1-.51.143h-1.593a.693.693,0,0,1-.51-.143.8.8,0,0,1-.131-.534v-.08l.53-.124v.339h1.824v-.653h-1.593a.685.685,0,0,1-.51-.143.8.8,0,0,1-.131-.534v-.315a.8.8,0,0,1,.131-.534.685.685,0,0,1,.51-.143h1.474a.705.705,0,0,1,.5.139.685.685,0,0,1,.139.49v.06l-.53.139Z" transform="translate(-145.49 -277.907)"/>
    <path id="Path_40" data-name="Path 40" class="cls-3" d="M187.673,311.609a.8.8,0,0,1,.131-.534.685.685,0,0,1,.51-.143h1.9a.685.685,0,0,1,.51.143.8.8,0,0,1,.131.534v1.506a.8.8,0,0,1-.131.534.689.689,0,0,1-.51.143h-1.9a.689.689,0,0,1-.51-.143.8.8,0,0,1-.131-.534Zm.6,1.645h1.992v-1.809h-1.992Z" transform="translate(-151.681 -277.901)"/>
    <path id="Path_41" data-name="Path 41" class="cls-3" d="M198.84,313.8v-2.86h.6v2.322h1.936v.538Z" transform="translate(-158.403 -277.908)"/>
    <path id="Path_42" data-name="Path 42" class="cls-3" d="M207.788,310.94v2.322H209.5V310.94h.6v2.183a.8.8,0,0,1-.131.534.689.689,0,0,1-.51.143H207.82a.689.689,0,0,1-.506-.143.8.8,0,0,1-.131-.534V310.94h.6Z" transform="translate(-163.419 -277.908)"/>
    <path id="Path_43" data-name="Path 43" class="cls-3" d="M219.9,311.452h-1.617v1.809H219.9v-.613l.6.139v.339a.8.8,0,0,1-.131.534.689.689,0,0,1-.506.143h-1.542a.689.689,0,0,1-.51-.143.8.8,0,0,1-.131-.534v-1.506a.8.8,0,0,1,.131-.534.685.685,0,0,1,.51-.143h1.542a.685.685,0,0,1,.506.143.8.8,0,0,1,.131.534v.271l-.6.1Z" transform="translate(-169.737 -277.907)"/>
    <path id="Path_44" data-name="Path 44" class="cls-3" d="M227.88,313.8v-2.86h.6v2.86Z" transform="translate(-175.875 -277.908)"/>
    <path id="Path_45" data-name="Path 45" class="cls-3" d="M232.553,311.609a.8.8,0,0,1,.131-.534.685.685,0,0,1,.51-.143h1.9a.685.685,0,0,1,.51.143.8.8,0,0,1,.131.534v1.506a.8.8,0,0,1-.131.534.689.689,0,0,1-.51.143h-1.9a.689.689,0,0,1-.51-.143.8.8,0,0,1-.131-.534Zm.6,1.645h1.992v-1.809h-1.992Z" transform="translate(-178.683 -277.901)"/>
    <path id="Path_46" data-name="Path 46" class="cls-3" d="M243.674,313.794v-2.86h.4l1.816,1.685q.092.084.163.159a1.7,1.7,0,0,1,.131.151v-2h.538v2.86h-.4l-1.9-1.765-.12-.124-.12-.108v2h-.538Z" transform="translate(-185.363 -277.902)"/>
    <path id="Path_47" data-name="Path 47" class="cls-3" d="M254.63,313.8v-2.86h2.641v.486h-2.044v.637h1.2v.494h-1.2v.709H257.3v.538H254.63Z" transform="translate(-191.969 -277.908)"/>
    <path id="Path_48" data-name="Path 48" class="cls-3" d="M266.2,311.44h-1.689v.613h1.593a.693.693,0,0,1,.51.143.8.8,0,0,1,.131.534v.4a.8.8,0,0,1-.131.534.693.693,0,0,1-.51.143h-1.593a.693.693,0,0,1-.51-.143.8.8,0,0,1-.131-.534v-.08l.53-.124v.339h1.824v-.653h-1.593a.685.685,0,0,1-.51-.143.8.8,0,0,1-.131-.534v-.315a.8.8,0,0,1,.131-.534.685.685,0,0,1,.51-.143H266.1a.705.705,0,0,1,.5.139.685.685,0,0,1,.139.49v.06l-.53.139v-.331Z" transform="translate(-197.527 -277.907)"/>
    <path id="Path_49" data-name="Path 49" class="cls-3" d="M279.13,313.8v-2.86h.6v2.86Z" transform="translate(-206.709 -277.908)"/>
    <path id="Path_50" data-name="Path 50" class="cls-3" d="M283.94,313.794v-2.86h.4l1.816,1.685q.092.084.163.159a1.7,1.7,0,0,1,.131.151v-2h.538v2.86h-.4l-1.9-1.765-.119-.124-.1-.112v2h-.538Z" transform="translate(-209.603 -277.902)"/>
    <path id="Path_51" data-name="Path 51" class="cls-3" d="M294.86,313.8v-2.86h2.609v.5h-1.992v.753h1.088v.522h-1.088V313.8h-.6Z" transform="translate(-216.173 -277.908)"/>
    <path id="Path_52" data-name="Path 52" class="cls-3" d="M303.143,311.609a.8.8,0,0,1,.131-.534.685.685,0,0,1,.51-.143h1.9a.685.685,0,0,1,.51.143.8.8,0,0,1,.131.534v1.506a.8.8,0,0,1-.131.534.689.689,0,0,1-.51.143h-1.9a.689.689,0,0,1-.51-.143.8.8,0,0,1-.131-.534Zm.6,1.645h1.992v-1.809h-1.992Z" transform="translate(-221.153 -277.901)"/>
    <path id="Path_53" data-name="Path 53" class="cls-3" d="M314.31,313.8v-2.86h2.207a.633.633,0,0,1,.446.131.562.562,0,0,1,.139.422v.665a.562.562,0,0,1-.139.422.626.626,0,0,1-.446.131h-.339l1.2,1.08h-.86l-1.04-1.08h-.57v1.08h-.59Zm1.94-2.366H314.9v.8h1.35a.335.335,0,0,0,.215-.052.227.227,0,0,0,.056-.175v-.343a.223.223,0,0,0-.056-.175.335.335,0,0,0-.215-.048Z" transform="translate(-227.875 -277.905)"/>
    <path id="Path_54" data-name="Path 54" class="cls-3" d="M324.322,313.8v-2.86h.486l1.215,1.729,1.2-1.729h.482v2.86h-.558v-2.071q-.048.112-.084.183c-.024.048-.048.088-.068.12l-.968,1.43h-.12l-.972-1.434a1.7,1.7,0,0,1-.092-.151,1.037,1.037,0,0,1-.064-.139V313.8h-.486Z" transform="translate(-233.879 -277.908)"/>
    <path id="Path_55" data-name="Path 55" class="cls-3" d="M334.754,313.8l1.462-2.86h.578l1.482,2.86H337.6l-.311-.625h-1.645l-.3.625h-.6Zm1.155-1.143h1.131l-.558-1.163Z" transform="translate(-240.173 -277.908)"/>
    <path id="Path_56" data-name="Path 56" class="cls-3" d="M345.137,311.46v2.346h-.6V311.46h-1.2v-.51h2.976v.51h-1.2Z" transform="translate(-245.341 -277.914)"/>
    <path id="Path_57" data-name="Path 57" class="cls-3" d="M352.68,313.8v-2.86h.6v2.86Z" transform="translate(-250.96 -277.908)"/>
    <path id="Path_58" data-name="Path 58" class="cls-3" d="M359.594,311.452h-1.621v1.809h1.621v-.613l.6.139v.339a.8.8,0,0,1-.131.534.689.689,0,0,1-.506.143h-1.534a.689.689,0,0,1-.51-.143.8.8,0,0,1-.131-.534v-1.506a.8.8,0,0,1,.131-.534.685.685,0,0,1,.51-.143h1.542a.685.685,0,0,1,.506.143.8.8,0,0,1,.131.534v.271l-.6.1v-.542Z" transform="translate(-253.786 -277.907)"/>
    <path id="Path_59" data-name="Path 59" class="cls-3" d="M366.09,313.8l1.462-2.86h.578l1.482,2.86h-.673l-.311-.625H366.99l-.3.625h-.6Zm1.155-1.143h1.131l-.558-1.163Z" transform="translate(-259.028 -277.908)"/>
    <path id="Path_60" data-name="Path 60" class="cls-3" d="M378.883,311.441h-1.689v.613h1.593a.693.693,0,0,1,.51.143.8.8,0,0,1,.131.534v.4a.8.8,0,0,1-.131.534.693.693,0,0,1-.51.143h-1.593a.693.693,0,0,1-.51-.143.8.8,0,0,1-.131-.534v-.08l.53-.124v.339h1.824v-.653h-1.593a.685.685,0,0,1-.506-.143.8.8,0,0,1-.131-.534v-.315a.8.8,0,0,1,.131-.534.685.685,0,0,1,.506-.143h1.466a.705.705,0,0,1,.5.139.685.685,0,0,1,.139.49v.06l-.53.139v-.331Z" transform="translate(-265.32 -277.907)"/>
    <path id="Path_61" data-name="Path 61" class="cls-3" d="M391.81,313.8v-2.86h.6v2.86Z" transform="translate(-274.502 -277.908)"/>
    <path id="Path_62" data-name="Path 62" class="cls-3" d="M396.614,313.794v-2.86h.4l1.817,1.685.163.159a1.7,1.7,0,0,1,.127.151v-2h.538v2.86h-.4l-1.9-1.765-.12-.124-.1-.112v2h-.538Z" transform="translate(-277.39 -277.902)"/>
    <path id="Path_63" data-name="Path 63" class="cls-3" d="M407.847,311.46v2.346h-.6V311.46h-1.2v-.51h2.976v.51h-1.2Z" transform="translate(-283.07 -277.914)"/>
    <path id="Path_64" data-name="Path 64" class="cls-3" d="M415.39,313.8v-2.86h2.633v.486h-2.032v.637h1.2v.494h-1.2v.709h2.067v.538H415.39Z" transform="translate(-288.689 -277.908)"/>
    <path id="Path_65" data-name="Path 65" class="cls-3" d="M427.256,311.476H425.38v1.809h1.876v-.637h-.98v-.466h1.566v.984a.8.8,0,0,1-.131.534.689.689,0,0,1-.506.143h-1.781a.689.689,0,0,1-.51-.143.8.8,0,0,1-.131-.534v-1.506a.8.8,0,0,1,.131-.534.685.685,0,0,1,.51-.143H427.2a.693.693,0,0,1,.506.139.737.737,0,0,1,.135.51v.064l-.59.088v-.319Z" transform="translate(-294.337 -277.931)"/>
    <path id="Path_66" data-name="Path 66" class="cls-3" d="M435.61,313.8v-2.86h2.207a.634.634,0,0,1,.446.131.562.562,0,0,1,.139.422v.665a.562.562,0,0,1-.139.422.629.629,0,0,1-.446.131h-.339l1.2,1.08h-.86l-1.04-1.08h-.57v1.08h-.59Zm1.94-2.366H436.2v.8h1.35a.335.335,0,0,0,.215-.052.227.227,0,0,0,.056-.175v-.343a.223.223,0,0,0-.056-.175.335.335,0,0,0-.215-.048Z" transform="translate(-300.854 -277.905)"/>
    <path id="Path_67" data-name="Path 67" class="cls-3" d="M444,313.8l1.462-2.86h.578l1.482,2.86h-.673l-.311-.625H444.9l-.3.625Zm1.155-1.143h1.131l-.558-1.163Z" transform="translate(-305.902 -277.908)"/>
    <path id="Path_68" data-name="Path 68" class="cls-3" d="M454.91,313.8v-2.86h.6v2.322h1.936v.538Z" transform="translate(-312.466 -277.908)"/>
    <path id="Path_69" data-name="Path 69" class="cls-3" d="M463.48,313.8v-2.86h2.641v.486h-2.036v.637h1.2v.494h-1.2v.709h2.067v.538h-2.669Z" transform="translate(-317.622 -277.908)"/>
    <path id="Path_70" data-name="Path 70" class="cls-3" d="M475.053,311.441h-1.689v.613h1.593a.693.693,0,0,1,.51.143.8.8,0,0,1,.131.534v.4a.8.8,0,0,1-.131.534.693.693,0,0,1-.51.143h-1.593a.693.693,0,0,1-.51-.143.8.8,0,0,1-.131-.534v-.08l.53-.124v.339h1.824v-.653h-1.593a.685.685,0,0,1-.506-.143.8.8,0,0,1-.131-.534v-.315a.8.8,0,0,1,.131-.534.685.685,0,0,1,.506-.143h1.466a.705.705,0,0,1,.5.139.685.685,0,0,1,.139.49v.06l-.53.139v-.331Z" transform="translate(-323.18 -277.907)"/>
  </g>
</svg>
