<svg xmlns="http://www.w3.org/2000/svg" viewBox="9543.794 461.687 50.193 54.625">
  <defs>
    <style>
      .cls-1 {
        fill: #34346e;
      }

      .cls-2 {
        fill: #45455e;
      }

      .cls-3 {
        fill: #67e191;
      }

      .cls-4 {
        fill: #eee;
      }

      .cls-5 {
        fill: #171736;
      }
    </style>
  </defs>
  <g id="_004-office-block" data-name="004-office-block" transform="translate(9526.213 462.02)">
    <g id="Group_22" data-name="Group 22" transform="translate(17.581 -0.333)">
      <path id="Rectangle_27" data-name="Rectangle 27" class="cls-1" d="M5,0H25.464a5,5,0,0,1,5,5V54.625a0,0,0,0,1,0,0H5a5,5,0,0,1-5-5V5A5,5,0,0,1,5,0Z" transform="translate(0)"/>
      <path id="Rectangle_26" data-name="Rectangle 26" class="cls-2" d="M0,0H14.919a5,5,0,0,1,5,5V35.958a5,5,0,0,1-5,5H0a0,0,0,0,1,0,0V0A0,0,0,0,1,0,0Z" transform="translate(30.274 13.666)"/>
      <path id="Path_93" data-name="Path 93" class="cls-3" d="M340.29,173.679h7.1a1.09,1.09,0,0,0,0-2.179h-7.1a1.09,1.09,0,1,0,0,2.179Z" transform="translate(-303.6 -152.276)"/>
      <path id="Path_94" data-name="Path 94" class="cls-3" d="M340.29,223.379h7.1a1.09,1.09,0,0,0,0-2.179h-7.1a1.09,1.09,0,1,0,0,2.179Z" transform="translate(-303.6 -196.507)"/>
      <path id="Path_95" data-name="Path 95" class="cls-4" d="M340.29,272.979h7.1a1.09,1.09,0,0,0,0-2.179h-7.1a1.09,1.09,0,1,0,0,2.179Z" transform="translate(-303.6 -240.648)"/>
      <path id="Path_96" data-name="Path 96" class="cls-4" d="M340.29,322.679h7.1a1.09,1.09,0,0,0,0-2.179h-7.1a1.09,1.09,0,1,0,0,2.179Z" transform="translate(-303.6 -284.879)"/>
      <path id="Path_97" data-name="Path 97" class="cls-5" d="M340.29,372.279h7.1a1.09,1.09,0,0,0,0-2.179h-7.1a1.09,1.09,0,1,0,0,2.179Z" transform="translate(-303.6 -329.02)"/>
      <path id="Path_98" data-name="Path 98" class="cls-4" d="M340.29,421.979h7.1a1.089,1.089,0,0,0,0-2.179h-7.1a1.089,1.089,0,1,0,0,2.179Z" transform="translate(-303.6 -373.25)"/>
      <path id="Path_99" data-name="Path 99" class="cls-4" d="M74.69,59.889a1.085,1.085,0,0,0,1.09-1.09V56.39a1.09,1.09,0,1,0-2.179,0V58.8A1.085,1.085,0,0,0,74.69,59.889Z" transform="translate(-68.33 -48.864)"/>
      <path id="Path_100" data-name="Path 100" class="cls-4" d="M128.49,59.889a1.085,1.085,0,0,0,1.089-1.09V56.39a1.09,1.09,0,1,0-2.179,0V58.8A1.085,1.085,0,0,0,128.49,59.889Z" transform="translate(-116.209 -48.864)"/>
      <path id="Path_101" data-name="Path 101" class="cls-2" d="M182.189,59.889a1.085,1.085,0,0,0,1.09-1.09V56.39a1.09,1.09,0,1,0-2.179,0V58.8A1.092,1.092,0,0,0,182.189,59.889Z" transform="translate(-163.999 -48.864)"/>
      <path id="Path_102" data-name="Path 102" class="cls-4" d="M235.99,59.889a1.085,1.085,0,0,0,1.09-1.09V56.39a1.09,1.09,0,1,0-2.179,0V58.8A1.085,1.085,0,0,0,235.99,59.889Z" transform="translate(-211.878 -48.864)"/>
      <path id="Path_103" data-name="Path 103" class="cls-4" d="M74.69,127.6a1.085,1.085,0,0,0,1.09-1.09V124.09a1.09,1.09,0,0,0-2.179,0v2.421A1.092,1.092,0,0,0,74.69,127.6Z" transform="translate(-68.33 -109.114)"/>
      <path id="Path_104" data-name="Path 104" class="cls-4" d="M128.49,127.6a1.085,1.085,0,0,0,1.089-1.09V124.09a1.09,1.09,0,0,0-2.179,0v2.421A1.092,1.092,0,0,0,128.49,127.6Z" transform="translate(-116.209 -109.114)"/>
      <path id="Path_105" data-name="Path 105" class="cls-2" d="M182.189,127.6a1.085,1.085,0,0,0,1.09-1.09V124.09a1.09,1.09,0,0,0-2.179,0v2.421A1.1,1.1,0,0,0,182.189,127.6Z" transform="translate(-163.999 -109.114)"/>
      <path id="Path_106" data-name="Path 106" class="cls-4" d="M235.99,127.6a1.085,1.085,0,0,0,1.09-1.09V124.09a1.09,1.09,0,0,0-2.179,0v2.421A1.092,1.092,0,0,0,235.99,127.6Z" transform="translate(-211.878 -109.114)"/>
      <path id="Path_107" data-name="Path 107" class="cls-4" d="M74.69,195.389a1.085,1.085,0,0,0,1.09-1.089v-2.41a1.09,1.09,0,0,0-2.179,0v2.41A1.085,1.085,0,0,0,74.69,195.389Z" transform="translate(-68.33 -169.452)"/>
      <path id="Path_108" data-name="Path 108" class="cls-4" d="M128.49,195.389a1.085,1.085,0,0,0,1.089-1.089v-2.41a1.09,1.09,0,0,0-2.179,0v2.41A1.085,1.085,0,0,0,128.49,195.389Z" transform="translate(-116.209 -169.452)"/>
      <path id="Path_109" data-name="Path 109" class="cls-4" d="M182.189,195.389a1.085,1.085,0,0,0,1.09-1.089v-2.41a1.09,1.09,0,0,0-2.179,0v2.41A1.092,1.092,0,0,0,182.189,195.389Z" transform="translate(-163.999 -169.452)"/>
      <path id="Path_110" data-name="Path 110" class="cls-4" d="M235.99,195.389a1.085,1.085,0,0,0,1.09-1.089v-2.41a1.09,1.09,0,0,0-2.179,0v2.41A1.085,1.085,0,0,0,235.99,195.389Z" transform="translate(-211.878 -169.452)"/>
      <path id="Path_111" data-name="Path 111" class="cls-4" d="M74.69,263.189a1.085,1.085,0,0,0,1.09-1.09v-2.41a1.09,1.09,0,0,0-2.179,0v2.41A1.092,1.092,0,0,0,74.69,263.189Z" transform="translate(-68.33 -229.791)"/>
      <path id="Path_112" data-name="Path 112" class="cls-4" d="M128.49,263.189a1.085,1.085,0,0,0,1.089-1.09v-2.41a1.09,1.09,0,0,0-2.179,0v2.41A1.092,1.092,0,0,0,128.49,263.189Z" transform="translate(-116.209 -229.791)"/>
      <path id="Path_113" data-name="Path 113" class="cls-4" d="M182.189,263.189a1.085,1.085,0,0,0,1.09-1.09v-2.41a1.09,1.09,0,1,0-2.179,0v2.41A1.1,1.1,0,0,0,182.189,263.189Z" transform="translate(-163.999 -229.791)"/>
      <path id="Path_114" data-name="Path 114" class="cls-4" d="M235.99,263.189a1.085,1.085,0,0,0,1.09-1.09v-2.41a1.09,1.09,0,0,0-2.179,0v2.41A1.092,1.092,0,0,0,235.99,263.189Z" transform="translate(-211.878 -229.791)"/>
      <path id="Path_115" data-name="Path 115" class="cls-4" d="M74.69,330.889a1.085,1.085,0,0,0,1.09-1.09v-2.41a1.09,1.09,0,0,0-2.179,0v2.41A1.085,1.085,0,0,0,74.69,330.889Z" transform="translate(-68.33 -290.04)"/>
      <path id="Path_116" data-name="Path 116" class="cls-4" d="M128.49,330.889a1.085,1.085,0,0,0,1.089-1.09v-2.41a1.09,1.09,0,0,0-2.179,0v2.41A1.085,1.085,0,0,0,128.49,330.889Z" transform="translate(-116.209 -290.04)"/>
      <path id="Path_117" data-name="Path 117" class="cls-4" d="M182.189,330.889a1.085,1.085,0,0,0,1.09-1.09v-2.41a1.09,1.09,0,1,0-2.179,0v2.41A1.092,1.092,0,0,0,182.189,330.889Z" transform="translate(-163.999 -290.04)"/>
      <path id="Path_118" data-name="Path 118" class="cls-4" d="M235.99,330.889a1.085,1.085,0,0,0,1.09-1.09v-2.41a1.09,1.09,0,0,0-2.179,0v2.41A1.085,1.085,0,0,0,235.99,330.889Z" transform="translate(-211.878 -290.04)"/>
      <path id="Path_119" data-name="Path 119" class="cls-3" d="M74.69,398.6a1.085,1.085,0,0,0,1.09-1.089v-2.421a1.09,1.09,0,0,0-2.179,0v2.421A1.092,1.092,0,0,0,74.69,398.6Z" transform="translate(-68.33 -350.29)"/>
      <path id="Path_120" data-name="Path 120" class="cls-3" d="M128.49,398.6a1.085,1.085,0,0,0,1.089-1.089v-2.421a1.09,1.09,0,0,0-2.179,0v2.421A1.092,1.092,0,0,0,128.49,398.6Z" transform="translate(-116.209 -350.29)"/>
      <path id="Path_121" data-name="Path 121" class="cls-4" d="M182.189,398.6a1.085,1.085,0,0,0,1.09-1.089v-2.421a1.09,1.09,0,0,0-2.179,0v2.421A1.1,1.1,0,0,0,182.189,398.6Z" transform="translate(-163.999 -350.29)"/>
      <path id="Path_122" data-name="Path 122" class="cls-4" d="M235.99,398.6a1.085,1.085,0,0,0,1.09-1.089v-2.421a1.09,1.09,0,0,0-2.179,0v2.421A1.092,1.092,0,0,0,235.99,398.6Z" transform="translate(-211.878 -350.29)"/>
    </g>
  </g>
</svg>
