<svg xmlns="http://www.w3.org/2000/svg" viewBox="9916.813 466.065 50 43.241">
  <defs>
    <style>
      .cls-1 {
        fill: none;
        stroke: #34346e;
        stroke-linecap: round;
        stroke-miterlimit: 10;
        stroke-width: 2px;
      }

      .cls-2 {
        fill: #45455e;
      }

      .cls-3 {
        fill: #34346e;
      }

      .cls-4 {
        fill: #67e191;
      }

      .cls-5 {
        fill: #bababa;
      }
    </style>
  </defs>
  <g id="_003-briefcase" data-name="003-briefcase" transform="translate(9916.812 462.065)">
    <path id="Path_88" data-name="Path 88" class="cls-1" d="M19,15.345V6.9A1.9,1.9,0,0,1,20.9,5H34.339a1.9,1.9,0,0,1,1.9,1.9v8.443" transform="translate(-2.621 0)"/>
    <path id="Path_89" data-name="Path 89" class="cls-2" d="M48.267,48.483H1.733A1.733,1.733,0,0,1,0,46.75V15.733A1.733,1.733,0,0,1,1.733,14H48.267A1.733,1.733,0,0,1,50,15.733V46.75A1.733,1.733,0,0,1,48.267,48.483Z" transform="translate(0 -1.241)"/>
    <path id="Path_90" data-name="Path 90" class="cls-3" d="M6.9,14H1.733A1.733,1.733,0,0,0,0,15.733V46.75a1.733,1.733,0,0,0,1.733,1.733H6.9Z" transform="translate(0 -1.241)"/>
    <path id="Path_91" data-name="Path 91" class="cls-3" d="M55.164,14H50V48.483h5.164A1.733,1.733,0,0,0,56.9,46.75V15.733A1.733,1.733,0,0,0,55.164,14Z" transform="translate(-6.897 -1.241)"/>
    <rect id="Rectangle_21" data-name="Rectangle 21" class="cls-4" width="1.724" height="34.483" transform="translate(6.034 12.759)"/>
    <rect id="Rectangle_22" data-name="Rectangle 22" class="cls-4" width="1.724" height="34.483" transform="translate(42.241 12.759)"/>
    <rect id="Rectangle_23" data-name="Rectangle 23" class="cls-5" width="6.897" height="2.586" transform="translate(4.31 10.172)"/>
    <rect id="Rectangle_24" data-name="Rectangle 24" class="cls-5" width="6.897" height="2.586" transform="translate(38.793 10.172)"/>
  </g>
</svg>
