<svg xmlns="http://www.w3.org/2000/svg" xmlns:xlink="http://www.w3.org/1999/xlink" viewBox="9909.512 -65.878 528.449 454.321">
  <defs>
    <style>
      .cls-1 {
        opacity: 0.3;
        fill: url(#linear-gradient);
      }
    </style>
    <linearGradient id="linear-gradient" x1="0.5" x2="0.5" y2="1" gradientUnits="objectBoundingBox">
      <stop offset="0.011" stop-color="#ce6a23"/>
      <stop offset="1" stop-color="#d78b29"/>
    </linearGradient>
  </defs>
  <g id="Group_25" data-name="Group 25" transform="translate(9072)">
    <path id="Path_124" data-name="Path 124" class="cls-1" d="M1.308,36.189,36.625,0,188.356,153.039l-34.881,34.009Zm190.1,190.972L0,419l36.625,35.317L263.786,227.161,205.8,168.3,170.044,205.36Z" transform="translate(1102.176 -65.878)"/>
    <path id="Path_125" data-name="Path 125" class="cls-1" d="M1.308,36.189,36.625,0,188.356,153.039l-34.881,34.009Zm190.1,190.972L0,419l36.625,35.317L263.786,227.161,205.8,168.3,170.044,205.36Z" transform="translate(969.844 -65.878)"/>
    <path id="Path_126" data-name="Path 126" class="cls-1" d="M1.308,36.189,36.625,0,188.356,153.039l-34.881,34.009Zm190.1,190.972L0,419l36.625,35.317L263.786,227.161,205.8,168.3,170.044,205.36Z" transform="translate(837.511 -65.878)"/>
  </g>
</svg>
