<svg xmlns="http://www.w3.org/2000/svg" viewBox="9543.531 744 50 52.115">
  <defs>
    <style>
      .cls-1 {
        fill: #34346e;
      }

      .cls-2 {
        fill: #67e191;
      }
    </style>
  </defs>
  <g id="_002-computer" data-name="002-computer" transform="translate(9535.28 744)">
    <rect id="Rectangle_28" data-name="Rectangle 28" class="cls-1" width="50" height="11.859" rx="5.929" transform="translate(8.251 40.256)"/>
    <path id="Path_84" data-name="Path 84" class="cls-1" d="M82.228,30.962A.962.962,0,0,0,81.267,30H41.462a.962.962,0,0,0-.962.962V59.229a.962.962,0,0,0,.962.962H81.267a.962.962,0,0,0,.962-.962ZM42.423,58.267V53.935h7.962a2.564,2.564,0,1,0,0-1.923H42.423v-2.14H57.17l2.417,2.417a2.569,2.569,0,1,0,1.386-1.334L58.248,48.23a.961.961,0,0,0-.68-.282H42.423V46.057H68.846a2.564,2.564,0,1,0,0-1.923H42.423V42.243h6.62a.961.961,0,0,0,.68-.282l2.725-2.725A2.571,2.571,0,1,0,51.062,37.9L48.644,40.32H42.423v-8.4H80.305v2.371H65.371a.961.961,0,0,0-.68.282L61.966,37.3a2.571,2.571,0,1,0,1.386,1.334l2.418-2.418H80.305V52.371H72.664a2.564,2.564,0,1,0,0,1.923h7.641v3.973Zm9.7-5.295a.641.641,0,1,1,.641.641A.642.642,0,0,1,52.119,52.973Zm9.808-.281a.641.641,0,1,1-.641.641A.642.642,0,0,1,61.927,52.691Zm8.653-7.6a.641.641,0,1,1,.641.641A.642.642,0,0,1,70.58,45.1ZM52.761,36.858a.641.641,0,1,1,.641.641A.642.642,0,0,1,52.761,36.858Zm8.892,2.821a.641.641,0,1,1-.641-.641A.642.642,0,0,1,61.653,39.679ZM70.93,53.332a.641.641,0,1,1-.641-.641A.642.642,0,0,1,70.93,53.332Z" transform="translate(-28.115 -26.154)"/>
    <path id="Path_85" data-name="Path 85" class="cls-1" d="M54.527,40.191H45.365V37.883h8.723a3.876,3.876,0,0,0,3.872-3.872V3.872A3.876,3.876,0,0,0,54.088,0H12.411A3.876,3.876,0,0,0,8.539,3.872V34.011a3.876,3.876,0,0,0,3.872,3.872h8.724v2.308H11.972a3.725,3.725,0,0,0-3.721,3.721v4.48a3.725,3.725,0,0,0,3.721,3.721H54.527a3.725,3.725,0,0,0,3.721-3.721v-4.48a3.726,3.726,0,0,0-3.721-3.721Zm-44.065-6.18V3.872a1.951,1.951,0,0,1,1.949-1.949H54.088a1.951,1.951,0,0,1,1.949,1.949V34.011a1.951,1.951,0,0,1-1.949,1.949H12.411a1.951,1.951,0,0,1-1.949-1.949Zm12.6,3.872H43.442v2.308H23.058ZM56.325,48.392a1.8,1.8,0,0,1-1.8,1.8H11.972a1.8,1.8,0,0,1-1.8-1.8v-4.48a1.8,1.8,0,0,1,1.8-1.8H54.527a1.8,1.8,0,0,1,1.8,1.8v4.48Z" transform="translate(0)"/>
    <path id="Path_86" data-name="Path 86" class="cls-2" d="M62.5,352.484H45.961a.962.962,0,1,0,0,1.923H62.5a.962.962,0,1,0,0-1.923Z" transform="translate(-32.037 -307.294)"/>
    <path id="Path_87" data-name="Path 87" class="cls-2" d="M329.33,352.484h-2.885a.962.962,0,1,0,0,1.923h2.885a.962.962,0,1,0,0-1.923Z" transform="translate(-276.562 -307.294)"/>
  </g>
</svg>
